HIERARCHY
ROOT Hips
{
    OFFSET   0.000000   0.000000   0.000000
    CHANNELS 6 Xposition Yposition Zposition Zrotation Xrotation Yrotation
    JOINT Chest
    {
        OFFSET   0.000000   8.007240   0.000000
        CHANNELS 3 Zrotation Xrotation Yrotation
        JOINT Chest2
        {
            OFFSET   0.000000  22.077100   0.000000
            CHANNELS 3 Zrotation Xrotation Yrotation
            JOINT Neck
            {
                OFFSET   0.000000  23.254800   0.000000
                CHANNELS 3 Zrotation Xrotation Yrotation
                JOINT Head
                {
                    OFFSET   0.000000  14.370000   1.956600
                    CHANNELS 3 Zrotation Xrotation Yrotation
                    End Site
                    {
                        OFFSET   0.000000  19.566000   0.000000
                    }
                }
            }
            JOINT LeftCollar
            {
                OFFSET   3.911900  19.017000  -0.467064
                CHANNELS 3 Zrotation Xrotation Yrotation
                JOINT LeftShoulder
                {
                    OFFSET  10.383700   0.000000   0.000000
                    CHANNELS 3 Zrotation Xrotation Yrotation
                    JOINT LeftElbow
                    {
                        OFFSET  26.662100   0.001476   0.000517
                        CHANNELS 3 Zrotation Xrotation Yrotation
                        JOINT LeftWrist
                        {
                            OFFSET  28.869000  -0.000025  -0.000106
                            CHANNELS 3 Zrotation Xrotation Yrotation
                            JOINT LeftFinger0
                            {
                                OFFSET   2.044660  -2.323460   3.252850
                                CHANNELS 3 Zrotation Xrotation Yrotation
                                JOINT LeftFinger01
                                {
                                    OFFSET   3.088130   0.000000   0.000000
                                    CHANNELS 3 Zrotation Xrotation Yrotation
                                    JOINT LeftFinger02
                                    {
                                        OFFSET   2.639460   0.000000   0.000000
                                        CHANNELS 3 Zrotation Xrotation Yrotation
                                        End Site
                                        {
                                            OFFSET   2.582190   0.000000   0.000000
                                        }
                                    }
                                }
                            }
                            JOINT LeftFinger1
                            {
                                OFFSET   8.364480   0.000000   3.252850
                                CHANNELS 3 Zrotation Xrotation Yrotation
                                JOINT LeftFinger11
                                {
                                    OFFSET   4.646930   0.000000   0.000000
                                    CHANNELS 3 Zrotation Xrotation Yrotation
                                    JOINT LeftFinger12
                                    {
                                        OFFSET   2.323460   0.000000   0.000000
                                        CHANNELS 3 Zrotation Xrotation Yrotation
                                        End Site
                                        {
                                            OFFSET   2.273050   0.000000   0.000000
                                        }
                                    }
                                }
                            }
                            JOINT LeftFinger2
                            {
                                OFFSET   8.364490   0.000015   1.078090
                                CHANNELS 3 Zrotation Xrotation Yrotation
                                JOINT LeftFinger21
                                {
                                    OFFSET   5.111620   0.000000   0.000000
                                    CHANNELS 3 Zrotation Xrotation Yrotation
                                    JOINT LeftFinger22
                                    {
                                        OFFSET   2.788160   0.000016   0.000000
                                        CHANNELS 3 Zrotation Xrotation Yrotation
                                        End Site
                                        {
                                            OFFSET   2.727660   0.000000   0.000000
                                        }
                                    }
                                }
                            }
                            JOINT LeftFinger3
                            {
                                OFFSET   7.899780   0.000017  -1.078090
                                CHANNELS 3 Zrotation Xrotation Yrotation
                                JOINT LeftFinger31
                                {
                                    OFFSET   4.646930   0.000000   0.000000
                                    CHANNELS 3 Zrotation Xrotation Yrotation
                                    JOINT LeftFinger32
                                    {
                                        OFFSET   2.323470   0.000000   0.000000
                                        CHANNELS 3 Zrotation Xrotation Yrotation
                                        End Site
                                        {
                                            OFFSET   2.273050   0.000000   0.000000
                                        }
                                    }
                                }
                            }
                            JOINT LeftFinger4
                            {
                                OFFSET   7.435090   0.000000  -3.252850
                                CHANNELS 3 Zrotation Xrotation Yrotation
                                JOINT LeftFinger41
                                {
                                    OFFSET   3.717550   0.000000   0.000000
                                    CHANNELS 3 Zrotation Xrotation Yrotation
                                    JOINT LeftFinger42
                                    {
                                        OFFSET   1.858770   0.000000   0.000000
                                        CHANNELS 3 Zrotation Xrotation Yrotation
                                        End Site
                                        {
                                            OFFSET   1.818440   0.000000   0.000000
                                        }
                                    }
                                }
                            }
                        }
                    }
                }
            }
            JOINT RightCollar
            {
                OFFSET  -3.911900  19.017000  -0.467063
                CHANNELS 3 Zrotation Xrotation Yrotation
                JOINT RightShoulder
                {
                    OFFSET -10.383700   0.000019   0.000000
                    CHANNELS 3 Zrotation Xrotation Yrotation
                    JOINT RightElbow
                    {
                        OFFSET -26.662100   0.001175   0.000102
                        CHANNELS 3 Zrotation Xrotation Yrotation
                        JOINT RightWrist
                        {
                            OFFSET -28.869000   0.000016  -0.000079
                            CHANNELS 3 Zrotation Xrotation Yrotation
                            JOINT RightFinger0
                            {
                                OFFSET  -2.044660  -2.323490   3.252850
                                CHANNELS 3 Zrotation Xrotation Yrotation
                                JOINT RightFinger01
                                {
                                    OFFSET  -3.088140   0.000000   0.000000
                                    CHANNELS 3 Zrotation Xrotation Yrotation
                                    JOINT RightFinger02
                                    {
                                        OFFSET  -2.639460   0.000000   0.000000
                                        CHANNELS 3 Zrotation Xrotation Yrotation
                                        End Site
                                        {
                                            OFFSET  -2.582190   0.000000   0.000000
                                        }
                                    }
                                }
                            }
                            JOINT RightFinger1
                            {
                                OFFSET  -8.364480   0.000000   3.252850
                                CHANNELS 3 Zrotation Xrotation Yrotation
                                JOINT RightFinger11
                                {
                                    OFFSET  -4.646930   0.000000   0.000000
                                    CHANNELS 3 Zrotation Xrotation Yrotation
                                    JOINT RightFinger12
                                    {
                                        OFFSET  -2.323470   0.000000   0.000000
                                        CHANNELS 3 Zrotation Xrotation Yrotation
                                        End Site
                                        {
                                            OFFSET  -2.273050   0.000000   0.000000
                                        }
                                    }
                                }
                            }
                            JOINT RightFinger2
                            {
                                OFFSET  -8.364480   0.000000   1.078090
                                CHANNELS 3 Zrotation Xrotation Yrotation
                                JOINT RightFinger21
                                {
                                    OFFSET  -5.111620   0.000000   0.000000
                                    CHANNELS 3 Zrotation Xrotation Yrotation
                                    JOINT RightFinger22
                                    {
                                        OFFSET  -2.788160   0.000000   0.000000
                                        CHANNELS 3 Zrotation Xrotation Yrotation
                                        End Site
                                        {
                                            OFFSET  -2.727660   0.000000   0.000000
                                        }
                                    }
                                }
                            }
                            JOINT RightFinger3
                            {
                                OFFSET  -7.899780   0.000000  -1.078090
                                CHANNELS 3 Zrotation Xrotation Yrotation
                                JOINT RightFinger31
                                {
                                    OFFSET  -4.646930   0.000000   0.000000
                                    CHANNELS 3 Zrotation Xrotation Yrotation
                                    JOINT RightFinger32
                                    {
                                        OFFSET  -2.323470   0.000000   0.000000
                                        CHANNELS 3 Zrotation Xrotation Yrotation
                                        End Site
                                        {
                                            OFFSET  -2.273050   0.000000   0.000000
                                        }
                                    }
                                }
                            }
                            JOINT RightFinger4
                            {
                                OFFSET  -7.435090   0.000000  -3.252850
                                CHANNELS 3 Zrotation Xrotation Yrotation
                                JOINT RightFinger41
                                {
                                    OFFSET  -3.717550   0.000000   0.000000
                                    CHANNELS 3 Zrotation Xrotation Yrotation
                                    JOINT RightFinger42
                                    {
                                        OFFSET  -1.858770   0.000000   0.000000
                                        CHANNELS 3 Zrotation Xrotation Yrotation
                                        End Site
                                        {
                                            OFFSET  -1.818440   0.000000   0.000000
                                        }
                                    }
                                }
                            }
                        }
                    }
                }
            }
        }
    }
    JOINT LeftHip
    {
        OFFSET   9.783040   0.000000   0.000000
        CHANNELS 3 Zrotation Xrotation Yrotation
        JOINT LeftKnee
        {
            OFFSET   0.000032 -41.789100  -0.002222
            CHANNELS 3 Zrotation Xrotation Yrotation
            JOINT LeftAnkle
            {
                OFFSET   0.000087 -41.133200  -0.000135
                CHANNELS 3 Zrotation Xrotation Yrotation
                JOINT LeftToe
                {
                    OFFSET   0.000000  -6.358960  14.674500
                    CHANNELS 3 Zrotation Xrotation Yrotation
                    End Site
                    {
                        OFFSET   0.000000   0.000000   3.913200
                    }
                }
            }
        }
    }
    JOINT RightHip
    {
        OFFSET  -9.783040   0.000000   0.000000
        CHANNELS 3 Zrotation Xrotation Yrotation
        JOINT RightKnee
        {
            OFFSET   0.000047 -41.789100  -0.000896
            CHANNELS 3 Zrotation Xrotation Yrotation
            JOINT RightAnkle
            {
                OFFSET  -0.000117 -41.133300  -0.000248
                CHANNELS 3 Zrotation Xrotation Yrotation
                JOINT RightToe
                {
                    OFFSET   0.000000  -6.358970  14.674500
                    CHANNELS 3 Zrotation Xrotation Yrotation
                    End Site
                    {
                        OFFSET   0.000000   0.000000   3.913200
                    }
                }
            }
        }
    }
}
MOTION
Frames: 4
Frame Time:   0.016667
 -1.134690  89.462500   0.322454  -1.294760  -5.428950   0.169521   1.376080   4.263970  -0.802787   2.823850   8.506860  -1.715470  -0.836591   0.658939   0.011158  -1.374940   1.335580   6.782900  -5.552940   1.006740  10.774600 -79.392000  10.156300  -2.653900   0.497636   5.191590 -14.839000  11.058200  -4.080730  -0.902255  39.920000  35.169000 -51.976900 -34.292300   0.002685   0.002042 -12.146100   0.008624   0.002820 -37.614200  -0.421396   0.546928 -30.776900  -0.004418   0.003807 -21.543800  -0.003438   0.003652 -33.912600  -3.623220   5.374150 -51.123900   0.005970  -0.011855 -34.048600   0.004126   0.000359 -29.309600  -4.698610   8.301610 -44.476200   0.001355  -0.012239 -29.621200   0.001560  -0.000625 -37.468300  -7.537930   9.712440 -57.164500  -0.001520  -0.007457 -38.071600  -0.002339   0.001270   7.488930   4.087260   8.605610  69.457900  -6.447460   0.698907   3.083880  -3.622700  18.602200 -17.696600   0.656508   7.752900 -44.213700  35.257200  69.021100  24.992300   0.004694  -0.002096   7.496120   0.001371  -0.005404  29.789800  -0.436316  -0.760043  24.374200   0.001208  -0.002615  17.062000   0.002379   0.000512  28.112800  -2.400520  -4.482610  33.442900   0.002372   0.004299  22.273000  -0.000069  -0.002519  28.428700  -2.950990  -5.432340  36.948500   0.003410  -0.007717  24.607700   0.001754  -0.000000  36.151200  -3.655460  -4.986530  54.462000   0.002233  -0.002726  36.271700   0.005852  -0.003037   4.057950   7.604150  -0.877627  -0.047705   0.567411   9.850350  -3.161470  -3.311830   0.801861   0.000000   0.000000   0.000000  -1.670360   7.540640  -3.653630   1.268400   1.915000 -12.217400   1.124980  -3.132380   1.015330   0.000000   0.000000  -0.000000
 -1.146830  89.462400   0.322347  -1.290550  -5.485030   0.163196   1.378740   4.302680  -0.795791   2.829520   8.584410  -1.703170  -0.826526   0.690585   0.011045  -1.360230   1.399550   6.740810  -5.551260   0.998850  10.733900 -79.378100  10.257900  -2.705920   0.470737   5.150350 -14.860600  11.091900  -4.063460  -0.895255  39.868200  35.108000 -51.948600 -34.325800   0.002689   0.002037 -12.162800   0.008617   0.002826 -37.633800  -0.442031   0.573228 -30.793300  -0.004415   0.003804 -21.555300  -0.003435   0.003650 -33.917500  -3.623310   5.372580 -51.131200   0.005973  -0.011856 -34.053400   0.004127   0.000356 -29.323100  -4.705570   8.308910 -44.498100   0.001355  -0.012241 -29.635800   0.001562  -0.000629 -37.467400  -7.548390   9.726350 -57.167300  -0.001522  -0.007456 -38.073500  -0.002342   0.001272   7.481320   4.025910   8.538020  69.497100  -6.485270   0.571458   3.148270  -3.470270  19.325500 -17.789100   0.462512   7.689260 -44.273700  35.165700  69.108200  24.716800   0.004706  -0.002086   7.358370   0.001374  -0.005403  29.811500  -0.323979  -0.563042  24.390400   0.001205  -0.002612  17.073300   0.002378   0.000524  28.112200  -2.270700  -4.240840  33.364200   0.002373   0.004297  22.220500  -0.000075  -0.002518  28.436700  -2.812930  -5.177830  36.876200   0.003409  -0.007726  24.559600   0.001751   0.000000  36.142800  -3.483110  -4.754090  54.431700   0.002232  -0.002727  36.251500   0.005852  -0.003037   4.059580   7.656760  -0.884147  -0.043526   0.580062   9.867210  -3.169540  -3.318730   0.793515  -0.000000   0.000000   0.000000  -1.666750   7.610190  -3.651120   1.278140   1.895480 -12.215700   1.117340  -3.131860   1.020410  -0.000000   0.000000   0.000000
 -1.166280  89.462300   0.322240  -1.283970  -5.586400   0.147208   1.384570   4.372810  -0.788828   2.842020   8.724760  -1.691140  -0.816466   0.743518   0.010932  -1.342150   1.506660   6.698860  -5.551740   0.985951  10.678800 -79.355900  10.448100  -2.779800   0.403625   5.030080 -14.960900  11.128600  -4.046220  -0.846371  39.710300  34.890400 -51.814500 -34.376200   0.002698   0.002029 -12.188100   0.008611   0.002832 -37.680000  -0.481367   0.623082 -30.831500  -0.004408   0.003797 -21.582000  -0.003426   0.003644 -33.932700  -3.623420   5.368170 -51.153900   0.005981  -0.011857 -34.068500   0.004129   0.000347 -29.349500  -4.726100   8.335390 -44.541900   0.001355  -0.012247 -29.664900   0.001565  -0.000641 -37.475900  -7.580760   9.763250 -57.187000  -0.001528  -0.007453 -38.086600  -0.002349   0.001276   7.464450   3.924470   8.443270  69.552400  -6.543270   0.342175   3.201780  -3.145510  20.660100 -17.930000  -0.020050   7.625630 -44.443000  35.058500  69.283800  24.293800   0.004731  -0.002067   7.146900   0.001381  -0.005400  29.862200  -0.153099  -0.263876  24.431000   0.001195  -0.002605  17.101700   0.002377   0.000552  28.116100  -2.077330  -3.880740  33.285400   0.002374   0.004293  22.168100  -0.000087  -0.002516  28.448400  -2.607350  -4.799220  36.803900   0.003406  -0.007745  24.511400   0.001745   0.000000  36.146000  -3.228540  -4.406770  54.401400   0.002230  -0.002727  36.231300   0.005851  -0.003037   4.061850   7.751340  -0.892206  -0.036194   0.604068   9.899230  -3.183140  -3.331700   0.778501   0.000000   0.000000   0.000000  -1.660490   7.728590  -3.645480   1.287530   1.875250 -12.208300   1.104230  -3.131330   1.027720  -0.000000   0.000000   0.000000
 -1.180330  89.462200   0.323905  -1.279440  -5.682940   0.123648   1.392140   4.440710  -0.792695   2.858790   8.860310  -1.700960  -0.816903   0.784894   0.011183  -1.340130   1.590690   6.706280  -5.557280   0.973807  10.665800 -79.323900  10.676700  -2.814870   0.305843   4.823770 -15.153900  11.098800  -4.173440  -0.688211  39.415400  34.417900 -51.494300 -34.410700   0.002707   0.002023 -12.205400   0.008612   0.002826 -37.749200  -0.535533   0.690998 -30.888400  -0.004397   0.003786 -21.621800  -0.003411   0.003635 -33.962900  -3.622950   5.360070 -51.198800   0.005995  -0.011857 -34.098400   0.004132   0.000331 -29.380500  -4.773370   8.404830 -44.598000   0.001354  -0.012258 -29.702300   0.001572  -0.000660 -37.514600  -7.657920   9.841300 -57.262800  -0.001536  -0.007448 -38.137000  -0.002361   0.001283   7.443400   3.842230   8.402350  69.576500  -6.586290   0.115066   3.141180  -2.734740  21.997000 -18.021000  -0.773843   7.784710 -44.616700  35.093100  69.540300  24.035500   0.004763  -0.002042   7.017770   0.001388  -0.005398  29.942700  -0.040613  -0.067349  24.497600   0.001181  -0.002595  17.148300   0.002379   0.000596  28.127500  -1.969060  -3.677920  33.323400   0.002364   0.004287  22.193500  -0.000098  -0.002514  28.459400  -2.493250  -4.588430  36.844100   0.003400  -0.007772  24.538100   0.001741   0.000000  36.225500  -3.092680  -4.209120  54.501700   0.002229  -0.002727  36.298100   0.005849  -0.003036   4.062850   7.840220  -0.894086  -0.029722   0.629508   9.934140  -3.194080  -3.345250   0.763381  -0.000000   0.000000  -0.000000  -1.649300   7.826910  -3.638010   1.285050   1.874490 -12.192100   1.092590  -3.134770   1.029540  -0.000000   0.000000   0.000000
